<svg xmlns="http://www.w3.org/2000/svg" viewBox="0 0 240 240" fill="none">
  <!-- fyt01 t01-pulse-gatling level 2; generated from pulse-gatling.svg -->
  <defs>
    <linearGradient id="cannon-body" x1="46" y1="87" x2="173" y2="155" gradientUnits="userSpaceOnUse">
      <stop stop-color="#DFFF8B"/>
      <stop offset=".32" stop-color="#91EE4A"/>
      <stop offset=".72" stop-color="#4DD43E"/>
      <stop offset="1" stop-color="#23A947"/>
    </linearGradient>
    <linearGradient id="cannon-nozzle" x1="174" y1="95" x2="225" y2="144" gradientUnits="userSpaceOnUse">
      <stop stop-color="#7FEA45"/>
      <stop offset="1" stop-color="#2EB83F"/>
    </linearGradient>
    <linearGradient id="bottle-mark" x1="100" y1="97" x2="141" y2="144" gradientUnits="userSpaceOnUse">
      <stop stop-color="#FFF889"/>
      <stop offset="1" stop-color="#FFD53A"/>
    </linearGradient>
    <filter id="shadow" x="20" y="72" width="211" height="105" filterUnits="userSpaceOnUse">
      <feDropShadow dx="0" dy="9" stdDeviation="7" flood-color="#176F40" flood-opacity=".34"/>
    </filter>
  </defs>
  <g id="pulse-chassis" filter="url(#shadow)" stroke-linejoin="round">
    <path d="M54 93H156C178 93 181 100.56 198 100.56H207C219 100.56 228 110.28 228 120C228 129.72 219 139.44 207 139.44H198C181 139.44 178 147 156 147H54C28 147 28 147 28 120C28 93 28 93 54 93Z" fill="url(#cannon-body)" stroke="#209F43" stroke-width="8"/>
    <rect x="204" y="104.88" width="23" height="30.24" rx="10.886" fill="#B1F468" stroke="#209F43" stroke-width="5"/>
    <path d="M55 111.36C70 99.48 91 97.32 111 100.56" stroke="#F4FFB1" stroke-width="8.64" stroke-linecap="round" opacity=".58"/>
    <ellipse cx="65" cy="107.04" rx="16.32" ry="6.7" transform="rotate(-20 65 107.04)" fill="white" opacity=".68"/>
    <path d="M107 96H131L129 108V114C129 120 135 125 139 132C145 143 136 154 121 154C106 154 97 143 103 132C107 125 110 120 110 114L107 96Z" transform="translate(120 120) scale(.72) rotate(90) translate(-120 -120)" fill="url(#bottle-mark)" stroke="#D8AD29" stroke-width="4"/>
    <path d="M106 132C114 128 128 128 136 132" transform="translate(120 120) scale(.72) rotate(90) translate(-120 -120)" stroke="#FFF7A4" stroke-width="4" stroke-linecap="round" opacity=".68"/>
  </g>
  <g id="upgrade-lv2" stroke-linejoin="round"><path d="M69 101Q73 94 83 94H145L157 102H82Z" fill="#D6FF91" stroke="#2BA448" stroke-width="3"/><path d="M88 99H139" stroke="#FFF5AE" stroke-width="3" stroke-linecap="round"/><g transform="translate(0 240) scale(1 -1)"><path d="M69 101Q73 94 83 94H145L157 102H82Z" fill="#D6FF91" stroke="#2BA448" stroke-width="3"/><path d="M88 99H139" stroke="#FFF5AE" stroke-width="3" stroke-linecap="round"/></g></g>
</svg>
